<svg xmlns="http://www.w3.org/2000/svg" width="454" height="454" viewBox="0 0 512 512">
  <g fill="none" stroke-linecap="round">
    <circle cx="256" cy="256" r="254" stroke="#686868" stroke-width="1"/>
    <circle cx="256" cy="256" r="249" stroke="#2c2c2c" stroke-width="1"/>
    <g stroke="#c8c8c8" stroke-width="1.5">
      <path d="M149 73A212 212 0 0 1 248 37"/>
      <path d="M264 37A212 212 0 0 1 363 73"/>
      <path d="M256 32v22"/>
      <path d="M55 205A208 208 0 0 0 61 321"/>
      <path d="M457 205A208 208 0 0 1 451 321"/>
      <path d="M162 448h43"/>
      <path d="M308 448h43"/>
    </g>
  </g>
  <g fill="#c8c8c8">
    <circle cx="149" cy="73" r="4"/>
    <circle cx="363" cy="73" r="4"/>
    <circle cx="55" cy="205" r="4"/>
    <circle cx="61" cy="321" r="4"/>
    <circle cx="457" cy="205" r="4"/>
    <circle cx="451" cy="321" r="4"/>
    <circle cx="162" cy="448" r="4"/>
    <circle cx="351" cy="448" r="4"/>
  </g>
  <rect x="210" y="435" width="92" height="28" rx="14" fill="#000000" stroke="#c8c8c8" stroke-width="1.5"/>
</svg>
